<svg width="321" height="106" viewBox="0 0 321 106" fill="none" xmlns="http://www.w3.org/2000/svg">
<g filter="url(#filter0_d_2062_722)">
<g clip-path="url(#clip0_2062_722)">
<path d="M5 21C5 15.3995 5 12.5992 6.08993 10.4601C7.04867 8.57847 8.57847 7.04867 10.4601 6.08993C12.5992 5 15.3995 5 21 5H300C305.601 5 308.401 5 310.54 6.08993C312.422 7.04867 313.951 8.57847 314.91 10.4601C316 12.5992 316 15.3995 316 21V85C316 90.6005 316 93.4008 314.91 95.5399C313.951 97.4215 312.422 98.9513 310.54 99.9101C308.401 101 305.601 101 300 101H21C15.3995 101 12.5992 101 10.4601 99.9101C8.57847 98.9513 7.04867 97.4215 6.08993 95.5399C5 93.4008 5 90.6005 5 85V21Z" fill="#5252FF"/>
<circle cx="57.431" cy="28.0804" r="94.3763" fill="white" fill-opacity="0.1"/>
<circle cx="50.6672" cy="7.10787" r="115.349" fill="white" fill-opacity="0.1"/>
</g>
</g>
<defs>
<filter id="filter0_d_2062_722" x="0" y="0" width="321" height="106" filterUnits="userSpaceOnUse" color-interpolation-filters="sRGB">
<feFlood flood-opacity="0" result="BackgroundImageFix"/>
<feColorMatrix in="SourceAlpha" type="matrix" values="0 0 0 0 0 0 0 0 0 0 0 0 0 0 0 0 0 0 127 0" result="hardAlpha"/>
<feOffset/>
<feGaussianBlur stdDeviation="2.5"/>
<feComposite in2="hardAlpha" operator="out"/>
<feColorMatrix type="matrix" values="0 0 0 0 0 0 0 0 0 0 0 0 0 0 0 0 0 0 0.25 0"/>
<feBlend mode="normal" in2="BackgroundImageFix" result="effect1_dropShadow_2062_722"/>
<feBlend mode="normal" in="SourceGraphic" in2="effect1_dropShadow_2062_722" result="shape"/>
</filter>
<clipPath id="clip0_2062_722">
<path d="M5 21C5 15.3995 5 12.5992 6.08993 10.4601C7.04867 8.57847 8.57847 7.04867 10.4601 6.08993C12.5992 5 15.3995 5 21 5H300C305.601 5 308.401 5 310.54 6.08993C312.422 7.04867 313.951 8.57847 314.91 10.4601C316 12.5992 316 15.3995 316 21V85C316 90.6005 316 93.4008 314.91 95.5399C313.951 97.4215 312.422 98.9513 310.54 99.9101C308.401 101 305.601 101 300 101H21C15.3995 101 12.5992 101 10.4601 99.9101C8.57847 98.9513 7.04867 97.4215 6.08993 95.5399C5 93.4008 5 90.6005 5 85V21Z" fill="white"/>
</clipPath>
</defs>
</svg>
