<svg width="24" height="24" viewBox="0 0 24 24" fill="none" xmlns="http://www.w3.org/2000/svg">
<circle cx="12" cy="12" r="12" fill="#507CDD"/>
<path fill-rule="evenodd" clip-rule="evenodd" d="M16.9351 8.89114L16.9358 8.8918C17.4458 9.40247 17.4664 10.2145 16.9811 10.7011L10.9831 16.6991C10.7664 16.9158 10.4791 17.0498 10.1738 17.0778L7.39377 17.3305C7.37377 17.3325 7.35377 17.3331 7.3331 17.3331C7.15777 17.3331 6.98777 17.2638 6.86177 17.1378C6.72177 16.9978 6.65177 16.8031 6.6691 16.6065L6.92177 13.8265C6.94977 13.5218 7.08443 13.2338 7.30177 13.0171L13.2991 7.0198C13.7671 6.5498 14.6158 6.57314 15.1098 7.0658L16.9351 8.89114ZM14.6791 11.1191L12.8824 9.32245L14.1811 8.02311L15.9771 9.81911L14.6791 11.1191ZM10.0531 15.7498L8.06844 15.9305L8.24444 13.9598L11.9891 10.2151L13.7864 12.0125L10.0531 15.7498Z" fill="#EEF4FF"/>
<mask id="mask0_50_3340" style="mask-type:luminance" maskUnits="userSpaceOnUse" x="6" y="6" width="12" height="12">
<path fill-rule="evenodd" clip-rule="evenodd" d="M16.9351 8.89114L16.9358 8.8918C17.4458 9.40247 17.4664 10.2145 16.9811 10.7011L10.9831 16.6991C10.7664 16.9158 10.4791 17.0498 10.1738 17.0778L7.39377 17.3305C7.37377 17.3325 7.35377 17.3331 7.3331 17.3331C7.15777 17.3331 6.98777 17.2638 6.86177 17.1378C6.72177 16.9978 6.65177 16.8031 6.6691 16.6065L6.92177 13.8265C6.94977 13.5218 7.08443 13.2338 7.30177 13.0171L13.2991 7.0198C13.7671 6.5498 14.6158 6.57314 15.1098 7.0658L16.9351 8.89114ZM14.6791 11.1191L12.8824 9.32245L14.1811 8.02311L15.9771 9.81911L14.6791 11.1191ZM10.0531 15.7498L8.06844 15.9305L8.24444 13.9598L11.9891 10.2151L13.7864 12.0125L10.0531 15.7498Z" fill="white"/>
</mask>
<g mask="url(#mask0_50_3340)">
</g>
</svg>
