<svg width="25" height="24" viewBox="0 0 25 24" fill="none" xmlns="http://www.w3.org/2000/svg">
<circle cx="12.7388" cy="12" r="12" fill="#D7D8DA"/>
<path fill-rule="evenodd" clip-rule="evenodd" d="M12.7388 10.6667C12.0028 10.6667 11.4054 11.264 11.4054 12C11.4054 12.736 12.0028 13.3334 12.7388 13.3334C13.4748 13.3334 14.0721 12.736 14.0721 12C14.0721 11.264 13.4748 10.6667 12.7388 10.6667ZM17.4054 10.6667C16.6694 10.6667 16.0721 11.264 16.0721 12C16.0721 12.736 16.6694 13.3334 17.4054 13.3334C18.1414 13.3334 18.7388 12.736 18.7388 12C18.7388 11.264 18.1414 10.6667 17.4054 10.6667ZM6.73877 12C6.73877 11.264 7.3361 10.6667 8.0721 10.6667C8.8081 10.6667 9.40544 11.264 9.40544 12C9.40544 12.736 8.8081 13.3334 8.0721 13.3334C7.3361 13.3334 6.73877 12.736 6.73877 12Z" fill="white"/>
<mask id="mask0_50_3336" style="mask-type:luminance" maskUnits="userSpaceOnUse" x="6" y="10" width="13" height="4">
<path fill-rule="evenodd" clip-rule="evenodd" d="M12.7388 10.6667C12.0028 10.6667 11.4054 11.264 11.4054 12C11.4054 12.736 12.0028 13.3334 12.7388 13.3334C13.4748 13.3334 14.0721 12.736 14.0721 12C14.0721 11.264 13.4748 10.6667 12.7388 10.6667ZM17.4054 10.6667C16.6694 10.6667 16.0721 11.264 16.0721 12C16.0721 12.736 16.6694 13.3334 17.4054 13.3334C18.1414 13.3334 18.7388 12.736 18.7388 12C18.7388 11.264 18.1414 10.6667 17.4054 10.6667ZM6.73877 12C6.73877 11.264 7.3361 10.6667 8.0721 10.6667C8.8081 10.6667 9.40544 11.264 9.40544 12C9.40544 12.736 8.8081 13.3334 8.0721 13.3334C7.3361 13.3334 6.73877 12.736 6.73877 12Z" fill="white"/>
</mask>
<g mask="url(#mask0_50_3336)">
</g>
</svg>
